<svg t="1695283594248" class="icon" viewBox="0 0 1024 1024" version="1.1" xmlns="http://www.w3.org/2000/svg" p-id="4112" width="200" height="200"><path d="M921.8 322H102.2C63.6 322 32 353.6 32 392.2V856c0 38.6 31.6 70.2 70.2 70.2H922c38.6 0 70.2-31.6 70.2-70.2V392.2c-0.2-38.6-31.8-70.2-70.4-70.2zM868 266H156c-15.4 0-28-12.6-28-28s12.6-28 28-28h712c15.4 0 28 12.6 28 28s-12.6 28-28 28z m-61.6-112H217.6c-14 0-25.6-11.6-25.6-25.6v-4.8c0-14 11.6-25.6 25.6-25.6h588.8c14 0 25.6 11.6 25.6 25.6v4.8c0 14-11.6 25.6-25.6 25.6z" p-id="4113"></path></svg>
