<svg t="1695283182836" class="icon" viewBox="0 0 1024 1024" version="1.1" xmlns="http://www.w3.org/2000/svg" p-id="4004" width="200" height="200"><path d="M419.2 668.4V355.6c0-1.6 0.2-3.2 0.4-4.8 0.2-1.6 0.6-3.2 1-4.6 0.4-1.6 1-3 1.6-4.4 0.6-1.4 1.4-2.8 2.2-4.2 0.8-1.4 1.8-2.6 2.8-3.8s2.2-2.4 3.4-3.4c1.2-1 2.4-2 3.8-2.8l4.2-2.4c1.4-0.6 3-1.2 4.4-1.8 1.6-0.4 3-0.8 4.6-1 1.6-0.2 3.2-0.4 4.8-0.4 1.6 0 3.2 0 4.8 0.2 1.6 0.2 3.2 0.6 4.6 1 1.6 0.4 3 1 4.4 1.6 1.4 0.6 2.8 1.4 4.2 2.2 1.4 0.8 2.6 1.8 3.8 2.8l188 156.4c1 0.8 1.8 1.6 2.8 2.6 0.8 0.8 1.6 1.8 2.4 2.8 0.8 1 1.4 2 2 3s1.2 2.2 1.8 3.2c0.6 1.2 1 2.2 1.4 3.4 0.4 1.2 0.8 2.4 1 3.6l0.6 3.6c0.2 1.2 0.2 2.4 0.2 3.6 0 1.2 0 2.4-0.2 3.6l-0.6 3.6c-0.2 1.2-0.6 2.4-1 3.6-0.4 1.2-0.8 2.4-1.4 3.4-0.6 1.2-1.2 2.2-1.8 3.2s-1.4 2-2 3c-0.8 1-1.6 2-2.4 2.8-0.8 0.8-1.8 1.8-2.8 2.6l-188 156.4c-1.2 1-2.6 2-3.8 2.8-1.4 0.8-2.8 1.6-4.2 2.2-1.4 0.6-3 1.2-4.4 1.6-1.6 0.4-3 0.8-4.6 1-1.6 0.2-3.2 0.2-4.8 0.2-1.6 0-3.2-0.2-4.8-0.4-1.6-0.2-3.2-0.6-4.6-1s-3-1-4.4-1.8c-1.4-0.6-2.8-1.4-4.2-2.4s-2.6-1.8-3.8-2.8-2.4-2.2-3.4-3.4c-1-1.2-2-2.4-2.8-3.8-0.8-1.4-1.6-2.8-2.2-4.2-0.6-1.4-1.2-3-1.6-4.4-0.4-1.6-0.8-3-1-4.6-0.2-1.6-0.4-3.2-0.4-4.8zM950.8 512c0-242.4-196.4-438.8-438.8-438.8S73.2 269.6 73.2 512 269.6 950.8 512 950.8 950.8 754.4 950.8 512z" p-id="4005"></path></svg>
